<mxfile host="Electron" agent="Mozilla/5.0 (Windows NT 10.0; Win64; x64) AppleWebKit/537.36 (KHTML, like Gecko) draw.io/26.0.7 Chrome/128.0.6613.186 Electron/32.2.5 Safari/537.36" version="26.0.7">
  <diagram name="Page-1" id="VPaOXWFFRLuavpoR9e43">
    <mxGraphModel dx="1434" dy="956" grid="1" gridSize="10" guides="1" tooltips="1" connect="1" arrows="1" fold="1" page="1" pageScale="1" pageWidth="850" pageHeight="1100" math="0" shadow="0">
      <root>
        <mxCell id="0" />
        <mxCell id="1" parent="0" />
        <mxCell id="A3BgRcUt9gxDGE8-_YkN-1" value="Client (Browser)" style="verticalAlign=top;align=left;spacingTop=8;spacingLeft=2;spacingRight=12;shape=cube;size=10;direction=south;fontStyle=4;html=1;whiteSpace=wrap;" parent="1" vertex="1">
          <mxGeometry x="20" y="325" width="108" height="60" as="geometry" />
        </mxCell>
        <mxCell id="A3BgRcUt9gxDGE8-_YkN-3" value="Web Server" style="verticalAlign=top;align=left;spacingTop=8;spacingLeft=2;spacingRight=12;shape=cube;size=10;direction=south;fontStyle=4;html=1;whiteSpace=wrap;" parent="1" vertex="1">
          <mxGeometry x="200" y="295" width="180" height="120" as="geometry" />
        </mxCell>
        <mxCell id="A3BgRcUt9gxDGE8-_YkN-4" value="Application Server" style="verticalAlign=top;align=left;spacingTop=8;spacingLeft=2;spacingRight=12;shape=cube;size=10;direction=south;fontStyle=4;html=1;whiteSpace=wrap;" parent="1" vertex="1">
          <mxGeometry x="460" y="172" width="300" height="367" as="geometry" />
        </mxCell>
        <mxCell id="A3BgRcUt9gxDGE8-_YkN-5" value="Identity Server" style="verticalAlign=top;align=left;spacingTop=8;spacingLeft=2;spacingRight=12;shape=cube;size=10;direction=south;fontStyle=4;html=1;whiteSpace=wrap;" parent="1" vertex="1">
          <mxGeometry x="893" y="110" width="180" height="120" as="geometry" />
        </mxCell>
        <mxCell id="A3BgRcUt9gxDGE8-_YkN-6" value="Database Server" style="verticalAlign=top;align=left;spacingTop=8;spacingLeft=2;spacingRight=12;shape=cube;size=10;direction=south;fontStyle=4;html=1;whiteSpace=wrap;" parent="1" vertex="1">
          <mxGeometry x="893" y="290" width="180" height="120" as="geometry" />
        </mxCell>
        <mxCell id="A3BgRcUt9gxDGE8-_YkN-7" value="Document Database Server" style="verticalAlign=top;align=left;spacingTop=8;spacingLeft=2;spacingRight=12;shape=cube;size=10;direction=south;fontStyle=4;html=1;whiteSpace=wrap;" parent="1" vertex="1">
          <mxGeometry x="893" y="460" width="180" height="120" as="geometry" />
        </mxCell>
        <mxCell id="A3BgRcUt9gxDGE8-_YkN-8" value="&lt;div&gt;&lt;br&gt;&lt;/div&gt;Postgrerss" style="shape=module;align=left;spacingLeft=20;align=center;verticalAlign=top;whiteSpace=wrap;html=1;" parent="1" vertex="1">
          <mxGeometry x="923" y="340" width="100" height="50" as="geometry" />
        </mxCell>
        <mxCell id="A3BgRcUt9gxDGE8-_YkN-9" value="&lt;div&gt;&lt;br&gt;&lt;/div&gt;Mini IO" style="shape=module;align=left;spacingLeft=20;align=center;verticalAlign=top;whiteSpace=wrap;html=1;" parent="1" vertex="1">
          <mxGeometry x="931" y="504" width="100" height="50" as="geometry" />
        </mxCell>
        <mxCell id="A3BgRcUt9gxDGE8-_YkN-10" value="&lt;div&gt;&lt;br&gt;&lt;/div&gt;KeyCloak" style="shape=module;align=left;spacingLeft=20;align=center;verticalAlign=top;whiteSpace=wrap;html=1;" parent="1" vertex="1">
          <mxGeometry x="923" y="160" width="100" height="50" as="geometry" />
        </mxCell>
        <mxCell id="A3BgRcUt9gxDGE8-_YkN-11" value="&lt;div&gt;DirectFarm&lt;/div&gt;" style="shape=module;align=left;spacingLeft=20;align=center;verticalAlign=top;whiteSpace=wrap;html=1;" parent="1" vertex="1">
          <mxGeometry x="480" y="217" width="250" height="282" as="geometry" />
        </mxCell>
        <mxCell id="A3BgRcUt9gxDGE8-_YkN-12" value="DirectFarm.web&lt;div&gt;&lt;/div&gt;" style="shape=module;align=left;spacingLeft=20;align=center;verticalAlign=top;whiteSpace=wrap;html=1;" parent="1" vertex="1">
          <mxGeometry x="214" y="339" width="140" height="50" as="geometry" />
        </mxCell>
        <mxCell id="A3BgRcUt9gxDGE8-_YkN-13" value="DirectFarm Api&lt;div&gt;&lt;/div&gt;" style="shape=module;align=left;spacingLeft=20;align=center;verticalAlign=top;whiteSpace=wrap;html=1;" parent="1" vertex="1">
          <mxGeometry x="500" y="359" width="100" height="50" as="geometry" />
        </mxCell>
        <mxCell id="A3BgRcUt9gxDGE8-_YkN-14" value="DirectFarm Infrastructure&lt;div&gt;&lt;/div&gt;" style="shape=module;align=left;spacingLeft=20;align=center;verticalAlign=top;whiteSpace=wrap;html=1;" parent="1" vertex="1">
          <mxGeometry x="620" y="359" width="100" height="50" as="geometry" />
        </mxCell>
        <mxCell id="A3BgRcUt9gxDGE8-_YkN-16" value="DirectFarm Core&lt;div&gt;&lt;/div&gt;" style="shape=module;align=left;spacingLeft=20;align=center;verticalAlign=top;whiteSpace=wrap;html=1;" parent="1" vertex="1">
          <mxGeometry x="565" y="284" width="100" height="50" as="geometry" />
        </mxCell>
        <mxCell id="A3BgRcUt9gxDGE8-_YkN-18" value="" style="endArrow=none;html=1;rounded=0;" parent="1" source="A3BgRcUt9gxDGE8-_YkN-1" target="A3BgRcUt9gxDGE8-_YkN-3" edge="1">
          <mxGeometry width="50" height="50" relative="1" as="geometry">
            <mxPoint x="400" y="440" as="sourcePoint" />
            <mxPoint x="450" y="390" as="targetPoint" />
          </mxGeometry>
        </mxCell>
        <mxCell id="A3BgRcUt9gxDGE8-_YkN-19" value="" style="endArrow=none;html=1;rounded=0;" parent="1" source="A3BgRcUt9gxDGE8-_YkN-4" target="A3BgRcUt9gxDGE8-_YkN-3" edge="1">
          <mxGeometry width="50" height="50" relative="1" as="geometry">
            <mxPoint x="118" y="371" as="sourcePoint" />
            <mxPoint x="210" y="370" as="targetPoint" />
          </mxGeometry>
        </mxCell>
        <mxCell id="A3BgRcUt9gxDGE8-_YkN-20" value="" style="endArrow=none;html=1;rounded=0;" parent="1" source="A3BgRcUt9gxDGE8-_YkN-4" target="A3BgRcUt9gxDGE8-_YkN-5" edge="1">
          <mxGeometry width="50" height="50" relative="1" as="geometry">
            <mxPoint x="470" y="365" as="sourcePoint" />
            <mxPoint x="390" y="365" as="targetPoint" />
          </mxGeometry>
        </mxCell>
        <mxCell id="A3BgRcUt9gxDGE8-_YkN-21" value="" style="endArrow=none;html=1;rounded=0;" parent="1" source="A3BgRcUt9gxDGE8-_YkN-6" target="A3BgRcUt9gxDGE8-_YkN-4" edge="1">
          <mxGeometry width="50" height="50" relative="1" as="geometry">
            <mxPoint x="860" y="349.5" as="sourcePoint" />
            <mxPoint x="780" y="349.5" as="targetPoint" />
          </mxGeometry>
        </mxCell>
        <mxCell id="A3BgRcUt9gxDGE8-_YkN-22" value="" style="endArrow=none;html=1;rounded=0;" parent="1" source="A3BgRcUt9gxDGE8-_YkN-7" target="A3BgRcUt9gxDGE8-_YkN-4" edge="1">
          <mxGeometry width="50" height="50" relative="1" as="geometry">
            <mxPoint x="880" y="450" as="sourcePoint" />
            <mxPoint x="800" y="450" as="targetPoint" />
          </mxGeometry>
        </mxCell>
      </root>
    </mxGraphModel>
  </diagram>
</mxfile>
